<svg version="1" xmlns="http://www.w3.org/2000/svg" width="2666.667" height="2666.667" viewBox="0 0 2000.000000 2000.000000"><path d="M934 43.1c-200 11.1-391.9 85.6-546.5 212.2-31.9 26.2-72.2 64.3-99.5 94.2-141.9 155.3-227 349.7-244.9 559-4.2 48.1-4.2 111.9 0 160 15.5 181.7 81.1 351 192.4 496.5 30.4 39.7 74.1 87.4 112 122 155.2 141.8 349.6 227 559 244.9 48.1 4.2 111.9 4.2 160 0 183.5-15.7 355-82.7 500.6-195.6 61.6-47.7 123.7-110.2 170.4-171.3 117.7-154 183.9-333.3 194.5-527 2-36.3 1.1-92.9-2.1-129.5-15.5-181.7-81.1-351-192.4-496.5-41-53.6-98.2-112.6-152-156.7-146.2-119.7-325.4-192.9-514-209.8-38.8-3.4-99.4-4.5-137.5-2.4zM1073.1 57c13.7 2.6 25.4 11.9 31.9 25.5 4.8 10 6 15.9 6 29 0 17.9-2.2 25.3-16.4 55.4-5.4 11.2-9.6 20.5-9.4 20.6.2.2 8.6 1.5 18.8 2.9 123.7 17.7 238.7 61.9 341.5 131.4 198.2 133.8 328.3 348 354.9 584.2 2.9 26 3.7 38.7 4.2 66 1 69.5-5.8 125.2-22.7 184.5-36.9 130.2-115.2 246-222.4 329.1-79.3 61.5-171.7 103.1-268.8 120.9-7.6 1.4-14.9 2.5-16.2 2.5h-2.4l-.3 117.2c-.3 108.7-.5 117.7-2.1 123.3-3.3 11.1-7.7 18.6-15.7 26.6-11.4 11.6-22.4 16.3-37.5 16.3-14.3-.1-25.5-4.5-35.8-14.3-7.8-7.3-13.1-15.5-16.5-25.5l-2.7-8.1-.3-114.7-.3-114.6-7.7-.7c-20.3-1.7-43.8-4.4-52.4-6.1l-2.7-.5-.3 132.3-.3 132.3-2.7 8c-11.9 34.9-45.1 50.4-75.8 35.3-9.1-4.5-19.6-15.2-24.3-24.8-7.7-15.8-7.1-2.3-7.5-167.1l-.3-147.6-6.7-2.8c-84.4-35.4-161.2-97-215.3-172.6-50.8-71.1-82.3-155.2-92.9-247.5-1.8-16.6-3.5-43.8-2.4-39.9 2.2 7.6 11 33 14.7 42.7 6.3 16.1 9.8 24.1 17.4 39.3 18.9 37.8 37.1 65.6 64.3 98.5 12.1 14.7 45.2 48 59.5 59.9 46 38.3 97.7 68.2 150.6 87.2l10.6 3.7.6-287.1c.4-158 .7-367.8.7-466.2 0-198.5-.5-183.8 6.7-198.5 2.6-5.3 5.7-9.5 10.7-14.6 11.7-11.7 25.5-17.2 40.7-16 22.3 1.6 40.2 16.4 48.6 40.1l2.8 8 .3 479.1.2 479.1 5.3.7c2.8.3 17 .9 31.5 1.2l26.2.7V997.4c0-310.5.4-476.9 1-482.7 2.7-23.6 16.2-41.5 37.5-49.7 8-3.1 24.2-3.4 32.5-.6 18.2 6.1 31.5 20.4 37.8 40.6 1.6 5.1 1.7 35.7 2.2 478.1l.5 472.6 11.5-3.2c23.2-6.4 44.5-13.9 66-23.2 12.8-5.5 41.9-19.9 47.7-23.6 2.4-1.5 4.5-2.7 4.7-2.7.3 0 4.7-2.5 9.8-5.7 64.9-39.5 118.8-90.5 161-152.3 27.3-39.9 47.9-82 63.5-129 19.7-59.5 28.5-122.8 25.4-181.3-4-75.1-21-140-53.6-204.2-25.9-51.1-54.5-89.8-96.8-131.1-59.8-58.5-132.8-100-215.1-122.3-8.2-2.3-19-4.9-23.9-5.8-29-5.6 41.8-3.7 84.8 2.3 30.6 4.2 68.8 13.1 98.1 23 9.1 3 16.8 5.4 17 5.1.9-.9-33.9-32.1-51.6-46.3-17.6-14-26-20.1-51-36.8-22-14.7-28.3-18.5-50-30.3-40.3-21.9-77.9-38.2-118.5-51.3-21.9-7-24.4-7.7-43-12.4-30.7-7.6-33.4-8.2-69.5-14.1-10.1-1.7-59-6.8-59.6-6.3-.2.2-140.8 296-312.5 657.4-210.5 443.1-313.8 659.5-317.5 665-9.9 15-25.1 26.9-40.2 31.4-6 1.8-9.1 2.2-17.1 1.8-8.5-.3-10.6-.8-16.2-3.5-24.4-12.1-34.1-45.2-22.9-78.3 1.5-4.7 10.6-24.7 20.1-44.5 9.4-19.8 17.2-36.5 17.2-37 0-.6-3.8-6.2-8.5-12.5-86.4-116.4-140.6-256.7-155.2-401.5-4.1-40.8-5.3-101.2-2.7-136 10.2-136.6 47-254.6 114.4-367 132.4-221 362.4-367.4 617.2-392.9 18.8-1.9 43.6-3.6 52.4-3.6h6.8l15.3-32.3c27.7-58.3 30.3-63 41-73.7 10-10 22-16.8 34.1-19.5 7.9-1.7 11.2-1.8 18-.5z"/><path d="M894 308.7c-9.5 1.1-50.2 8.6-63.5 11.7-41.6 9.5-79.6 21.9-117.5 38.1-4.7 2-11.1 4.8-14.3 6.1-15.8 6.7-51.7 25.7-75.2 39.9-76.7 46.4-147.5 111.7-201.8 186.2-7.2 9.9-25.4 36.9-28.1 41.8-.9 1.6-3.1 5.2-4.8 8-10.8 17.3-30 53.7-38.2 72.5-17.7 40.3-28.7 71.7-39 111-11.9 45.4-17.9 83.6-21.8 139-1.2 17.6-.5 75.5 1.1 89.5.6 4.9 1.7 16.2 2.6 25 5.4 55 22.8 125.7 43.1 175.7 2.6 6.2 5.9 14.4 7.4 18.3 12.6 31.5 52.2 105 54.9 101.9.7-.8 504.3-1060.4 505.8-1064.2.5-1.2-2.9-1.4-10.7-.5z"/></svg>